<svg
    fill="none"
    height="60"
    viewBox="0 0 24 24"
    width="60"
    xmlns="http://www.w3.org/2000/svg">
    <path
        d="M12 2C7.03125 2 3 6.03125 3 11C3 15.9688 7.03125 20 12 20C16.9688 20 21 15.9688 21 11C21 6.03125 16.9688 2 12 2ZM12 18C8.14062 18 5 14.8594 5 11C5 7.14062 8.14062 4 12 4C15.8594 4 19 7.14062 19 11C19 14.8594 15.8594 18 12 18Z"
        fill="#b87b2a"
    />
    <path
        d="M15 9C14.4477 9 14 8.55228 14 8C14 7.44772 14.4477 7 15 7C15.5523 7 16 7.44772 16 8C16 8.55228 15.5523 9 15 9ZM9 11C8.44772 11 8 10.5523 8 10C8 9.44772 8.44772 9 9 9C9.55228 9 10 9.44772 10 10C10 10.5523 9.55228 11 9 11ZM13 14C12.4477 14 12 13.5523 12 13C12 12.4477 12.4477 12 13 12C13.5523 12 14 12.4477 14 13C14 13.5523 13.5523 14 13 14Z"
        fill="#b87b2a"
    />
</svg>